<svg id="Line" height="512" viewBox="0 0 64 64" width="512" xmlns="http://www.w3.org/2000/svg"><g fill="#c4a2fc"><path d="m55 37h-21a1 1 0 0 0 -1 1v16a1 1 0 0 0 1 1h21a1 1 0 0 0 1-1v-16a1 1 0 0 0 -1-1zm-16 15h-2a1 1 0 0 1 0-2h2a1 1 0 0 1 0 2zm0-5h-2a1 1 0 0 1 0-2h2a1 1 0 0 1 0 2zm0-5h-2a1 1 0 0 1 0-2h2a1 1 0 0 1 0 2zm13 10h-9a1 1 0 0 1 0-2h9a1 1 0 0 1 0 2zm0-5h-9a1 1 0 0 1 0-2h9a1 1 0 0 1 0 2zm0-5h-9a1 1 0 0 1 0-2h9a1 1 0 0 1 0 2z"/><path d="m52 29.992 10.362-.04-11.362-11.366v10.406a1 1 0 0 0 1 1z"/><path d="m52.012 31.992h-.012a3 3 0 0 1 -3-3v-10.992h-20a3 3 0 0 0 -3 3v39a3 3 0 0 0 3 3h31a3 3 0 0 0 3-3v-28.05zm5.988 22.008a3 3 0 0 1 -3 3h-21a3 3 0 0 1 -3-3v-16a3 3 0 0 1 3-3h21a3 3 0 0 1 3 3z"/></g><path d="m41.854 19.043a16.237 16.237 0 0 0 .146-2.043 16 16 0 0 0 -32 0 16.237 16.237 0 0 0 .146 2.043 10 10 0 0 0 .854 19.957h3a1 1 0 0 0 0-2h-3a8 8 0 0 1 0-16h3a1 1 0 0 0 0-2h-1.841a14 14 0 1 1 27.682 0h-1.841a1 1 0 0 0 0 2h3a8 8 0 0 1 0 16h-3a1 1 0 0 0 0 2h3a10 10 0 0 0 .854-19.957z" fill="#151a6a"/><path d="m20 42a1 1 0 0 0 1-1v-12.586l2.293 2.293a1 1 0 0 0 1.414-1.414l-4-4a1 1 0 0 0 -1.416 0l-4 4a1 1 0 0 0 1.414 1.414l2.295-2.293v12.586a1 1 0 0 0 1 1z" fill="#151a6a"/><path d="m32 28a1 1 0 0 0 -1 1v12.586l-2.293-2.293a1 1 0 0 0 -1.414 1.414l4 4a1 1 0 0 0 1.416 0l4-4a1 1 0 0 0 -1.414-1.414l-2.295 2.293v-12.586a1 1 0 0 0 -1-1z" fill="#151a6a"/></svg>