<svg height="512pt" viewBox="0 0 512.0005 512" width="512pt" xmlns="http://www.w3.org/2000/svg"><path d="m291.605469 84v333.988281h-281.605469v-333.988281" fill="#dae9ec"/><path d="m205.140625 84h-195.140625v-53.585938c0-11.273437 9.140625-20.414062 20.414062-20.414062h240.777344c11.273438 0 20.414063 9.140625 20.414063 20.414062v53.585938" fill="#4dbaf6"/><path d="m247.46875 94c-.648438 0-1.308594-.070312-1.949219-.199219-.640625-.128906-1.269531-.320312-1.871093-.570312-.609376-.25-1.1875-.558594-1.726563-.921875-.550781-.355469-1.0625-.777344-1.523437-1.238282-.457032-.460937-.878907-.96875-1.238282-1.519531-.359375-.539062-.671875-1.121093-.921875-1.730469-.25-.601562-.4375-1.230468-.566406-1.867187-.132813-.644531-.203125-1.304687-.203125-1.953125 0-2.640625 1.070312-5.207031 2.929688-7.070312.460937-.457032.972656-.878907 1.523437-1.238282.539063-.371094 1.117187-.671875 1.726563-.921875.601562-.25 1.230468-.449219 1.871093-.578125 1.289063-.25 2.621094-.25 3.910157 0 .628906.128906 1.261718.328125 1.871093.578125.597657.25 1.179688.550781 1.71875.921875.550781.359375 1.058594.78125 1.519531 1.238282.460938.460937.882813.972656 1.25 1.523437.359376.539063.671876 1.117187.921876 1.71875.238281.609375.4375 1.242187.558593 1.878906.128907.640625.199219 1.300781.199219 1.953125 0 .648438-.070312 1.308594-.199219 1.949219-.121093.640625-.320312 1.269531-.558593 1.867187-.25.609376-.5625 1.191407-.921876 1.730469-.367187.550781-.789062 1.058594-1.25 1.519531-.460937.460938-.96875.882813-1.519531 1.242188-.539062.359375-1.121093.667969-1.71875.917969-.609375.25-1.242187.441406-1.871093.570312-.648438.128907-1.308594.199219-1.960938.199219zm0 0"/><path d="m10 417.988281h281.605469v63.597657c0 11.273437-9.140625 20.414062-20.414063 20.414062h-240.777344c-11.273437 0-20.414062-9.140625-20.414062-20.410156v-63.589844" fill="#0082a0"/><path d="m161.800781 470h-22c-5.523437 0-10-4.476562-10-10s4.476563-10 10-10h22c5.523438 0 10 4.476562 10 10s-4.476562 10-10 10zm0 0"/><path d="m175.800781 57h-50c-5.523437 0-10-4.480469-10-10 0-5.523438 4.476563-10 10-10h50c5.523438 0 10 4.476562 10 10s-4.476562 10-10 10zm0 0"/><path d="m317.601562 178.339844c-8.890624 8.890625-8.890624 23.304687 0 32.195312l-5.488281-5.484375c-9.597656-9.597656-25.15625-9.597656-34.75 0-8.890625 8.890625-8.890625 23.304688 0 32.199219-8.890625-8.894531-23.308593-8.894531-32.199219 0l-1.277343 1.273438c-7.53125 7.535156-8.683594 19.03125-3.453125 27.777343l-69.828125-69.828125c-9.96875-9.96875-26.128907-9.96875-36.09375 0-9.96875 9.964844-9.96875 26.125 0 36.09375l113.175781 113.175782c-15.5 15.492187-8.289062 8.28125-19.679688 19.671874-12.027343 12.023438-12.03125 31.523438-.003906 43.550782l.003906.003906c11.117188 11.117188 28.824219 12.078125 41.078126 2.222656l36.203124-24.90625c27.085938-18.089844 37.519532-3.003906 54.632813 14.109375l12 12 85.144531-85.144531-20.667968-20.667969c12.710937-18.785156 11.035156-33.164062 1.609374-42.585937l-85.652343-85.65625c-9.597657-9.597656-25.160157-9.597656-34.753907 0zm0 0" fill="#fdd1a3"/><path d="m364.582031 419.730469 102.03125-102.035157 35.378907 35.382813-102.03125 102.03125zm0 0" fill="#0082a0"/><path d="m107.355469 417.988281v-137.894531h21.0625l-44.757813-67.855469-44.753906 67.855469h21.0625v137.894531zm0 0" fill="#f2685a"/><path d="m509.070312 346.003906-35.378906-35.378906c-3.90625-3.902344-10.234375-3.902344-14.144531 0l-2.480469 2.480469-8.058594-8.054688c13.820313-25.804687 2.160157-42.035156-3.929687-48.128906l-85.65625-85.65625c-13.480469-13.476563-35.414063-13.476563-48.894531 0-4.714844 4.71875-7.6875 10.527344-8.925782 16.617187v-157.46875c.003907-16.769531-13.640624-30.414062-30.410156-30.414062h-240.777344c-16.769531 0-30.414062 13.644531-30.414062 30.414062v451.171876c0 16.769531 13.644531 30.414062 30.414062 30.414062h240.777344c16.769532 0 30.414063-13.644531 30.414063-30.414062v-80.585938c0-.015625 0-.027344 0-.042969l9.292969-6.394531c17.761718-11.847656 22.746093-6.738281 37.511718 8.394531 1.4375 1.472657 2.914063 2.980469 4.441406 4.507813l4.925782 4.929687-.261719.265625c-1.875 1.875-2.929687 4.417969-2.929687 7.070313 0 2.652343 1.054687 5.195312 2.929687 7.070312l35.378906 35.378907c1.953125 1.953124 4.511719 2.929687 7.074219 2.929687 2.558594 0 5.117188-.976563 7.070312-2.929687l102.03125-102.03125c3.90625-3.90625 3.90625-10.238282 0-14.144532zm-489.070312-315.589844c0-5.742187 4.671875-10.414062 10.414062-10.414062h240.777344c5.742188 0 10.414063 4.671875 10.414063 10.414062v160.03125c-4.117188 1.683594-7.976563 4.195313-11.3125 7.53125-6.058594 6.058594-9.449219 14.066407-9.59375 22.605469-8.542969.144531-16.550781 3.539063-22.605469 9.59375l-1.277344 1.277344c-2.996094 3-5.3125 6.457031-6.917968 10.167969l-52.222657-52.222656c-13.851562-13.847657-36.386719-13.847657-50.234375 0-6.710937 6.710937-10.40625 15.632812-10.40625 25.121093s3.695313 18.40625 10.402344 25.117188l106.105469 106.105469-12.609375 12.601562c-7.703125 7.703125-11.949219 17.949219-11.949219 28.84375-.003906 7.4375 1.976563 14.570312 5.679687 20.804688h-97.3125v-117.898438h11.0625c3.679688 0 7.0625-2.019531 8.804688-5.261719 1.746094-3.238281 1.566406-7.171875-.457031-10.246093l-44.753907-67.855469c-1.851562-2.804688-4.988281-4.492188-8.351562-4.492188-3.359375 0-6.496094 1.6875-8.347656 4.492188l-44.753906 67.855469c-2.027344 3.074218-2.203126 7.007812-.457032 10.246093 1.742188 3.238281 5.125 5.261719 8.804688 5.261719h11.0625v117.898438h-29.964844v-313.992188h185.140625c5.519531 0 10-4.480469 10-10 0-5.523438-4.480469-10-10-10h-185.140625zm49.96875 259.679688h5.285156c5.519532 0 10-4.476562 10-10s-4.480468-10-10-10h-17.773437l26.179687-39.695312 26.179688 39.695312h-2.488282c-5.523437 0-10 4.476562-10 10v127.898438h-27.382812zm211.636719 191.492188c0 5.742187-4.671875 10.414062-10.414063 10.414062h-240.777344c-5.742187 0-10.414062-4.671875-10.414062-10.414062v-53.597657h261.605469zm18.128906-103.617188c-.039063.023438-.074219.050781-.113281.078125l-36.203125 24.90625c-.207031.140625-.40625.289063-.601563.445313-3.660156 2.941406-8.027344 4.457031-12.410156 4.589843h-1.253906c-5.128906-.152343-10.191406-2.203125-14.078125-6.09375-3.929688-3.925781-6.089844-9.148437-6.089844-14.703125 0-5.554687 2.164063-10.777344 6.089844-14.707031l19.683593-19.671875c1.875-1.875 2.925782-4.421875 2.925782-7.070312.003906-2.652344-1.050782-5.195313-2.925782-7.074219l-97.445312-97.445313 5.984375-5.980468c3.902344-3.90625 3.902344-10.238282 0-14.144532-3.90625-3.902344-10.238281-3.902344-14.144531 0l-5.980469 5.984375-1.589844-1.585937c-2.929687-2.933594-4.546875-6.832032-4.546875-10.976563 0-4.148437 1.617188-8.046875 4.546875-10.976562 3.027344-3.027344 7.003907-4.539063 10.976563-4.539063 3.976562 0 7.953125 1.511719 10.976562 4.539063l69.832032 69.828125c3.570312 3.570312 9.238281 3.921875 13.21875.816406 3.980468-3.105469 5.023437-8.691406 2.433593-13.023438-3.003906-5.019531-2.207031-11.421874 1.941407-15.566406l1.277343-1.277344c2.410157-2.414062 5.617188-3.742187 9.027344-3.742187s6.617187 1.328125 9.027344 3.742187c3.90625 3.902344 10.234375 3.902344 14.144531 0 1.949219-1.953124 2.925781-4.511718 2.925781-7.070312 0-2.5625-.976562-5.121094-2.925781-7.074219-4.980469-4.976562-4.980469-13.078125 0-18.054687 5.679688-5.683594 14.925781-5.6875 20.609375 0l5.484375 5.484375c3.90625 3.90625 10.234375 3.90625 14.144531 0 1.949219-1.953125 2.925781-4.511719 2.925781-7.070313s-.976562-5.117187-2.925781-7.070312c-4.980469-4.976563-4.980469-13.078125-.003906-18.054688 5.683594-5.683594 14.929687-5.683594 20.609375 0l85.65625 85.652344c6.894531 6.894531 5.945312 16.957031-2.820312 29.914062-2.6875 3.96875-2.179688 9.285157 1.210937 12.675782l13.597656 13.597656-71.003906 71.003906-4.929687-4.929687c-1.464844-1.46875-2.882813-2.921875-4.265626-4.339844-14.703124-15.0625-31.363281-32.136719-62.992187-11.015625zm100.234375 63-21.238281-21.238281 87.890625-87.890625 21.238281 21.238281zm0 0"/><path d="m70.84375 115.449219h162.617188v49.328125h-162.617188zm0 0" fill="#fcbd38"/><path d="m233.460938 174.777344h-162.617188c-5.523438 0-10-4.476563-10-10v-49.328125c0-5.523438 4.476562-10 10-10h162.617188c5.523437 0 10 4.476562 10 10v49.328125c0 5.523437-4.476563 10-10 10zm-152.617188-20h142.617188v-29.328125h-142.617188zm0 0"/></svg>